<svg width="256" height="256" viewBox="0 0 256 256" fill="none" xmlns="http://www.w3.org/2000/svg">
<g clip-path="url(#clip0_16_14227)">
<path d="M256 0H0V256H256V0Z" fill="#803A00"/>
<path d="M225.28 30.7197H30.7202V225.28H225.28V30.7197Z" fill="#6A3000"/>
<g style="mix-blend-mode:multiply" opacity="0.5">
<path d="M0 0V256L128 128L0 0Z" fill="#B3B3B3"/>
<path d="M128 128L0 256H256L128 128Z" fill="#808080"/>
<path d="M256 256V0L128 128L256 256Z" fill="#E6E6E6"/>
<path d="M128 128L256 0H0L128 128Z" fill="#D4D4D4"/>
</g>
<path d="M30.72 225.28V30.72L0 0V256L30.72 225.28Z" fill="#EB8A00"/>
<path d="M30.72 225.28L0 256H256L225.28 225.28H30.72Z" fill="#D77900"/>
<path d="M225.28 30.72L256 0H0L30.72 30.72H225.28Z" fill="#FF9E00"/>
<path d="M117.8 151.88H76.52C75.12 151.88 74 150.76 74 149.36V106.6C74 105.2 75.12 104.08 76.52 104.08H109.84L119.8 92.1201H74C67.4 92.1201 62.04 97.4801 62.04 104.08V151.88C62.04 158.48 67.4 163.84 74 163.84H117.8V151.88Z" fill="#FFE100"/>
<path d="M170.04 163.84L193.96 92.1602H180L161.76 151.88H158.44L140.2 92.1602H126.24L150.16 163.84H170.04Z" fill="#FFE100"/>
</g>
<defs>
<clipPath id="clip0_16_14227">
<rect width="256" height="256" fill="white"/>
</clipPath>
</defs>
</svg>
